<svg xmlns="http://www.w3.org/2000/svg" viewBox="0 164 300 50" preserveAspectRatio="xMidYMax meet">
<path fill="black" d="M285.19,196.06c-2.16,1.89-4.58,3.4-7.32,4.25c-2.05,0.64-7.27,0.52-9.81-0.04
	c-6.26-1.38-11.81-6.49-13.5-12.44c-0.6-2.12-1.15-6.12,1.86-9.04c2.32-2.05,5.71-2.59,7.3-1.78c0.48,0.24,0.9,0.61,0.82,1.55
	c-0.06,0.21-0.19,0.46-0.32,0.73c-0.57,1.2-1.62,3.43,0.06,5.16c1.19,1.23,2.9,1.68,4.68,1.26c3.21-0.78,6.17-4.2,7.55-8.72
	c1.03-3.38-0.79-8.96-6.18-12.64c-0.1-0.07-0.2-0.12-0.31-0.17c-18.6-8.52-30.85,3.34-35.26,8.83c-1.63,2.03-3.25,4.82-4.97,7.76
	c-4.38,7.5-9.82,16.83-18.56,19.55c-2.05,0.64-7.27,0.52-9.81-0.04c-6.26-1.38-11.81-6.49-13.5-12.44c-0.6-2.12-1.15-6.12,1.86-9.04
	c2.32-2.05,5.71-2.59,7.3-1.78c0.48,0.24,0.9,0.61,0.82,1.55c-0.06,0.21-0.19,0.46-0.32,0.73c-0.57,1.19-1.62,3.42,0.06,5.15
	c1.19,1.23,2.89,1.68,4.68,1.26c3.21-0.78,6.17-4.2,7.55-8.72c1.03-3.38-0.79-8.96-6.18-12.64c-0.1-0.07-0.2-0.12-0.31-0.17
	c-18.6-8.52-30.85,3.34-35.26,8.83c-1.63,2.03-3.25,4.82-4.97,7.76c-4.38,7.5-9.82,16.83-18.56,19.54
	c-2.05,0.64-7.27,0.52-9.81-0.04c-6.26-1.38-11.81-6.49-13.5-12.44c-0.6-2.12-1.15-6.12,1.86-9.04c2.32-2.05,5.71-2.59,7.3-1.78
	c0.47,0.24,0.9,0.61,0.82,1.55c-0.06,0.21-0.19,0.46-0.32,0.73c-0.57,1.2-1.62,3.43,0.06,5.16c1.19,1.23,2.9,1.68,4.68,1.26
	c3.21-0.78,6.17-4.2,7.55-8.72c1.03-3.38-0.79-8.96-6.18-12.64c-0.1-0.07-0.2-0.12-0.31-0.17c-18.59-8.53-30.85,3.34-35.26,8.83
	c-1.63,2.03-3.25,4.81-4.97,7.76c-4.37,7.5-9.82,16.84-18.56,19.55c-2.05,0.64-7.27,0.52-9.81-0.04
	c-6.26-1.38-11.81-6.49-13.5-12.44c-0.6-2.12-1.15-6.12,1.86-9.04c2.32-2.05,5.71-2.59,7.3-1.78c0.48,0.24,0.9,0.61,0.82,1.55
	c-0.06,0.21-0.19,0.46-0.32,0.73c-0.57,1.2-1.62,3.43,0.06,5.16c1.19,1.23,2.9,1.68,4.68,1.26c3.21-0.78,6.17-4.2,7.55-8.72
	c1.03-3.38-0.78-8.96-6.18-12.64c-0.1-0.07-0.2-0.12-0.31-0.17c-18.6-8.52-30.85,3.34-35.26,8.83c-1.63,2.03-3.25,4.82-4.97,7.76
	c-4.21,7.21-9.41,16.1-17.58,19.19v4.42c0.08-0.02,0.18-0.04,0.26-0.06c10.3-3.2,16.2-13.31,20.94-21.43
	c1.64-2.81,3.19-5.46,4.62-7.25c3.78-4.71,14.26-14.87,30.08-7.72c3.95,2.76,4.81,6.47,4.39,7.86c-1.16,3.78-3.34,5.58-4.53,5.87
	c-0.09,0.02-0.17,0.04-0.24,0.04c0.09-0.21,0.19-0.43,0.27-0.59c0.3-0.64,0.62-1.31,0.69-2.04c0.24-2.56-0.89-4.66-3.08-5.77
	c-3.36-1.71-8.51-0.68-12.04,2.45c-3.39,3.29-4.5,8.12-3.04,13.25c2.09,7.37,8.93,13.69,16.62,15.39c2.82,0.62,8.87,0.91,11.96-0.04
	c10.3-3.2,16.2-13.31,20.94-21.44c1.64-2.81,3.19-5.46,4.62-7.25c3.78-4.72,14.26-14.88,30.08-7.72c3.95,2.76,4.81,6.47,4.39,7.86
	c-1.16,3.78-3.34,5.58-4.53,5.87c-0.09,0.02-0.17,0.04-0.24,0.04c0.09-0.21,0.19-0.43,0.27-0.59c0.3-0.64,0.62-1.31,0.69-2.04
	c0.24-2.56-0.89-4.66-3.08-5.77c-3.36-1.7-8.51-0.68-12.04,2.45c-3.39,3.29-4.5,8.12-3.04,13.25c2.09,7.37,8.93,13.69,16.63,15.39
	c2.82,0.62,8.87,0.91,11.96-0.04c10.29-3.2,16.19-13.31,20.94-21.43c1.64-2.81,3.19-5.46,4.62-7.25
	c3.78-4.72,14.26-14.88,30.08-7.72c3.95,2.76,4.81,6.47,4.39,7.86c-1.16,3.78-3.34,5.58-4.53,5.87c-0.09,0.02-0.17,0.04-0.24,0.04
	c0.09-0.21,0.19-0.43,0.27-0.59c0.31-0.65,0.62-1.32,0.69-2.04c0.24-2.56-0.89-4.66-3.08-5.77c-3.36-1.71-8.51-0.68-12.04,2.45
	c-3.39,3.29-4.5,8.12-3.04,13.25c2.09,7.37,8.93,13.69,16.63,15.39c2.82,0.62,8.87,0.91,11.95-0.04c10.3-3.2,16.2-13.31,20.94-21.43
	c1.64-2.81,3.19-5.46,4.62-7.25c3.78-4.71,14.26-14.87,30.08-7.72c3.95,2.76,4.81,6.47,4.39,7.86c-1.16,3.78-3.34,5.58-4.53,5.87
	c-0.09,0.02-0.17,0.04-0.24,0.04c0.09-0.21,0.19-0.43,0.27-0.59c0.3-0.64,0.62-1.31,0.69-2.04c0.24-2.56-0.89-4.66-3.08-5.77
	c-3.36-1.71-8.51-0.68-12.04,2.45c-3.39,3.29-4.5,8.12-3.04,13.25c2.09,7.37,8.93,13.69,16.62,15.39c2.81,0.62,8.87,0.91,11.96-0.04
	c2.22-0.69,4.23-1.72,6.08-2.96V196.06z"/>
</svg>


