<?xml version="1.0" encoding="utf-8"?>
<!-- Generator: Adobe Illustrator 25.2.0, SVG Export Plug-In . SVG Version: 6.00 Build 0)  -->
<svg version="1.1" id="Layer_1" xmlns="http://www.w3.org/2000/svg" xmlns:xlink="http://www.w3.org/1999/xlink" x="0px" y="0px"
	 viewBox="0 0 300 300" style="enable-background:new 0 0 300 300;" xml:space="preserve">
<style type="text/css">
	.st0{fill:#6CB2A6;}
	.st1{fill:#207793;}
</style>
<path class="st0" d="M284.08,131.56c-3.19,0.81-6.06,1.13-8.05,0.7c-10.61-2.28-13.39-9.27-15.05-13.44
	c-0.87-2.2-1.63-4.09-3.61-4.26c-2.02-0.21-3.37,1.74-4.7,3.89c-4.44,7.2-22.62,15.47-30.37,13.83c-10.48-2.21-13.3-9-14.99-13.05
	c-0.9-2.17-1.68-4.04-3.66-4.21c-2-0.17-3.37,1.7-4.7,3.8c-4.44,7.03-22.64,15.07-30.39,13.47c-10.36-2.15-13.22-8.73-14.92-12.66
	c-0.93-2.14-1.73-3.98-3.7-4.15c-2.03-0.19-3.42,1.74-4.7,3.71c-4.45,6.85-22.64,14.69-30.41,13.12
	c-10.25-2.08-13.13-8.46-14.86-12.27c-0.95-2.1-1.77-3.92-3.74-4.08c-2-0.16-3.42,1.69-4.7,3.61c-4.45,6.68-22.66,14.31-30.43,12.76
	c-10.14-2.02-13.05-8.2-14.79-11.89c-0.98-2.07-1.82-3.86-3.79-4.01c-2.01-0.15-3.42,1.65-4.7,3.51
	c-3.53,5.14-15.65,10.84-24.42,12.25v4.23c10.08-1.4,23.53-7.8,27.87-14.12c0.31-0.46,0.57-0.8,0.78-1.06
	c0.16,0.31,0.32,0.66,0.47,0.98c1.94,4.12,5.56,11.78,17.76,14.21c9.47,1.89,29.3-6.4,34.74-14.54c0.29-0.44,0.53-0.77,0.73-1.03
	c0.14,0.29,0.28,0.61,0.42,0.9c1.92,4.24,5.49,12.14,17.84,14.65c9.51,1.93,29.33-6.58,34.76-14.94c0.27-0.42,0.5-0.74,0.68-1
	c0.12,0.27,0.25,0.56,0.36,0.83c1.9,4.37,5.42,12.5,17.91,15.09c9.52,1.99,29.36-6.77,34.78-15.34c0.25-0.39,0.46-0.71,0.64-0.96
	c0.11,0.25,0.21,0.5,0.31,0.74c1.87,4.5,5.35,12.87,17.99,15.54c9.52,2.01,29.39-6.95,34.8-15.73c0.23-0.37,0.43-0.67,0.59-0.93
	c0.09,0.22,0.18,0.44,0.26,0.65c1.71,4.3,5.27,13.24,18.06,15.98c2.44,0.53,5.56,0.31,8.93-0.44V131.56z"/>
<path class="st1" d="M285.19,196.06c-2.16,1.89-4.58,3.4-7.32,4.25c-2.05,0.64-7.27,0.52-9.81-0.04
	c-6.26-1.38-11.81-6.49-13.5-12.44c-0.6-2.12-1.15-6.12,1.86-9.04c2.32-2.05,5.71-2.59,7.3-1.78c0.48,0.24,0.9,0.61,0.82,1.55
	c-0.06,0.21-0.19,0.46-0.32,0.73c-0.57,1.2-1.62,3.43,0.06,5.16c1.19,1.23,2.9,1.68,4.68,1.26c3.21-0.78,6.17-4.2,7.55-8.72
	c1.03-3.38-0.79-8.96-6.18-12.64c-0.1-0.07-0.2-0.12-0.31-0.17c-18.6-8.52-30.85,3.34-35.26,8.83c-1.63,2.03-3.25,4.82-4.97,7.76
	c-4.38,7.5-9.82,16.83-18.56,19.55c-2.05,0.64-7.27,0.52-9.81-0.04c-6.26-1.38-11.81-6.49-13.5-12.44c-0.6-2.12-1.15-6.12,1.86-9.04
	c2.32-2.05,5.71-2.59,7.3-1.78c0.48,0.24,0.9,0.61,0.82,1.55c-0.06,0.21-0.19,0.46-0.32,0.73c-0.57,1.19-1.62,3.42,0.06,5.15
	c1.19,1.23,2.89,1.68,4.68,1.26c3.21-0.78,6.17-4.2,7.55-8.72c1.03-3.38-0.79-8.96-6.18-12.64c-0.1-0.07-0.2-0.12-0.31-0.17
	c-18.6-8.52-30.85,3.34-35.26,8.83c-1.63,2.03-3.25,4.82-4.97,7.76c-4.38,7.5-9.82,16.83-18.56,19.54
	c-2.05,0.64-7.27,0.52-9.81-0.04c-6.26-1.38-11.81-6.49-13.5-12.44c-0.6-2.12-1.15-6.12,1.86-9.04c2.32-2.05,5.71-2.59,7.3-1.78
	c0.47,0.24,0.9,0.61,0.82,1.55c-0.06,0.21-0.19,0.46-0.32,0.73c-0.57,1.2-1.62,3.43,0.06,5.16c1.19,1.23,2.9,1.68,4.68,1.26
	c3.21-0.78,6.17-4.2,7.55-8.72c1.03-3.38-0.79-8.96-6.18-12.64c-0.1-0.07-0.2-0.12-0.31-0.17c-18.59-8.53-30.85,3.34-35.26,8.83
	c-1.63,2.03-3.25,4.81-4.97,7.76c-4.37,7.5-9.82,16.84-18.56,19.55c-2.05,0.64-7.27,0.52-9.81-0.04
	c-6.26-1.38-11.81-6.49-13.5-12.44c-0.6-2.12-1.15-6.12,1.86-9.04c2.32-2.05,5.71-2.59,7.3-1.78c0.48,0.24,0.9,0.61,0.82,1.55
	c-0.06,0.21-0.19,0.46-0.32,0.73c-0.57,1.2-1.62,3.43,0.06,5.16c1.19,1.23,2.9,1.68,4.68,1.26c3.21-0.78,6.17-4.2,7.55-8.72
	c1.03-3.38-0.78-8.96-6.18-12.64c-0.1-0.07-0.2-0.12-0.31-0.17c-18.6-8.52-30.85,3.34-35.26,8.83c-1.63,2.03-3.25,4.82-4.97,7.76
	c-4.21,7.21-9.41,16.1-17.58,19.19v4.42c0.08-0.02,0.18-0.04,0.26-0.06c10.3-3.2,16.2-13.31,20.94-21.43
	c1.64-2.81,3.19-5.46,4.62-7.25c3.78-4.71,14.26-14.87,30.08-7.72c3.95,2.76,4.81,6.47,4.39,7.86c-1.16,3.78-3.34,5.58-4.53,5.87
	c-0.09,0.02-0.17,0.04-0.24,0.04c0.09-0.21,0.19-0.43,0.27-0.59c0.3-0.64,0.62-1.31,0.69-2.04c0.24-2.56-0.89-4.66-3.08-5.77
	c-3.36-1.71-8.51-0.68-12.04,2.45c-3.39,3.29-4.5,8.12-3.04,13.25c2.09,7.37,8.93,13.69,16.62,15.39c2.82,0.62,8.87,0.91,11.96-0.04
	c10.3-3.2,16.2-13.31,20.94-21.44c1.64-2.81,3.19-5.46,4.62-7.25c3.78-4.72,14.26-14.88,30.08-7.72c3.95,2.76,4.81,6.47,4.39,7.86
	c-1.16,3.78-3.34,5.58-4.53,5.87c-0.09,0.02-0.17,0.04-0.24,0.04c0.09-0.21,0.19-0.43,0.27-0.59c0.3-0.64,0.62-1.31,0.69-2.04
	c0.24-2.56-0.89-4.66-3.08-5.77c-3.36-1.7-8.51-0.68-12.04,2.45c-3.39,3.29-4.5,8.12-3.04,13.25c2.09,7.37,8.93,13.69,16.63,15.39
	c2.82,0.62,8.87,0.91,11.96-0.04c10.29-3.2,16.19-13.31,20.94-21.43c1.64-2.81,3.19-5.46,4.62-7.25
	c3.78-4.72,14.26-14.88,30.08-7.72c3.95,2.76,4.81,6.47,4.39,7.86c-1.16,3.78-3.34,5.58-4.53,5.87c-0.09,0.02-0.17,0.04-0.24,0.04
	c0.09-0.21,0.19-0.43,0.27-0.59c0.31-0.65,0.62-1.32,0.69-2.04c0.24-2.56-0.89-4.66-3.08-5.77c-3.36-1.71-8.51-0.68-12.04,2.45
	c-3.39,3.29-4.5,8.12-3.04,13.25c2.09,7.37,8.93,13.69,16.63,15.39c2.82,0.62,8.87,0.91,11.95-0.04c10.3-3.2,16.2-13.31,20.94-21.43
	c1.64-2.81,3.19-5.46,4.62-7.25c3.78-4.71,14.26-14.87,30.08-7.72c3.95,2.76,4.81,6.47,4.39,7.86c-1.16,3.78-3.34,5.58-4.53,5.87
	c-0.09,0.02-0.17,0.04-0.24,0.04c0.09-0.21,0.19-0.43,0.27-0.59c0.3-0.64,0.62-1.31,0.69-2.04c0.24-2.56-0.89-4.66-3.08-5.77
	c-3.36-1.71-8.51-0.68-12.04,2.45c-3.39,3.29-4.5,8.12-3.04,13.25c2.09,7.37,8.93,13.69,16.62,15.39c2.81,0.62,8.87,0.91,11.96-0.04
	c2.22-0.69,4.23-1.72,6.08-2.96V196.06z"/>
</svg>
